<mxfile host="app.diagrams.net" modified="2023-08-23T22:37:20.267Z" agent="Mozilla/5.0 (Windows NT 10.0; Win64; x64) AppleWebKit/537.36 (KHTML, like Gecko) Chrome/116.0.0.0 Safari/537.36" etag="ltTOIGAQ4uCPfSNED6ts" version="21.6.9" type="device">
  <diagram name="Página-1" id="auI72NyhAE-FLDmKwXCC">
    <mxGraphModel dx="1221" dy="648" grid="1" gridSize="10" guides="1" tooltips="1" connect="1" arrows="1" fold="1" page="1" pageScale="1" pageWidth="827" pageHeight="1169" math="0" shadow="0">
      <root>
        <mxCell id="0" />
        <mxCell id="1" parent="0" />
        <mxCell id="WZnHxXMNDp8m7tRpT0hQ-5" value="" style="edgeStyle=orthogonalEdgeStyle;rounded=0;orthogonalLoop=1;jettySize=auto;html=1;" edge="1" parent="1" source="WZnHxXMNDp8m7tRpT0hQ-1" target="WZnHxXMNDp8m7tRpT0hQ-4">
          <mxGeometry relative="1" as="geometry" />
        </mxCell>
        <mxCell id="WZnHxXMNDp8m7tRpT0hQ-6" value="" style="edgeStyle=orthogonalEdgeStyle;rounded=0;orthogonalLoop=1;jettySize=auto;html=1;" edge="1" parent="1" source="WZnHxXMNDp8m7tRpT0hQ-1" target="WZnHxXMNDp8m7tRpT0hQ-4">
          <mxGeometry relative="1" as="geometry" />
        </mxCell>
        <mxCell id="WZnHxXMNDp8m7tRpT0hQ-7" value="" style="edgeStyle=orthogonalEdgeStyle;rounded=0;orthogonalLoop=1;jettySize=auto;html=1;" edge="1" parent="1" source="WZnHxXMNDp8m7tRpT0hQ-1" target="WZnHxXMNDp8m7tRpT0hQ-4">
          <mxGeometry relative="1" as="geometry" />
        </mxCell>
        <mxCell id="WZnHxXMNDp8m7tRpT0hQ-9" value="" style="edgeStyle=orthogonalEdgeStyle;rounded=0;orthogonalLoop=1;jettySize=auto;html=1;" edge="1" parent="1" source="WZnHxXMNDp8m7tRpT0hQ-1" target="WZnHxXMNDp8m7tRpT0hQ-8">
          <mxGeometry relative="1" as="geometry" />
        </mxCell>
        <mxCell id="WZnHxXMNDp8m7tRpT0hQ-13" value="" style="edgeStyle=orthogonalEdgeStyle;rounded=0;orthogonalLoop=1;jettySize=auto;html=1;" edge="1" parent="1" source="WZnHxXMNDp8m7tRpT0hQ-1" target="WZnHxXMNDp8m7tRpT0hQ-12">
          <mxGeometry relative="1" as="geometry" />
        </mxCell>
        <mxCell id="WZnHxXMNDp8m7tRpT0hQ-17" value="" style="edgeStyle=orthogonalEdgeStyle;rounded=0;orthogonalLoop=1;jettySize=auto;html=1;" edge="1" parent="1" source="WZnHxXMNDp8m7tRpT0hQ-1" target="WZnHxXMNDp8m7tRpT0hQ-16">
          <mxGeometry relative="1" as="geometry" />
        </mxCell>
        <mxCell id="WZnHxXMNDp8m7tRpT0hQ-1" value="conta bancaria" style="rounded=0;whiteSpace=wrap;html=1;" vertex="1" parent="1">
          <mxGeometry x="110" y="110" width="120" height="60" as="geometry" />
        </mxCell>
        <mxCell id="WZnHxXMNDp8m7tRpT0hQ-11" value="" style="edgeStyle=orthogonalEdgeStyle;rounded=0;orthogonalLoop=1;jettySize=auto;html=1;" edge="1" parent="1" source="WZnHxXMNDp8m7tRpT0hQ-4" target="WZnHxXMNDp8m7tRpT0hQ-10">
          <mxGeometry relative="1" as="geometry" />
        </mxCell>
        <mxCell id="WZnHxXMNDp8m7tRpT0hQ-4" value="Saque" style="rounded=0;whiteSpace=wrap;html=1;" vertex="1" parent="1">
          <mxGeometry x="280" y="20" width="120" height="60" as="geometry" />
        </mxCell>
        <mxCell id="WZnHxXMNDp8m7tRpT0hQ-8" value="Deposito" style="whiteSpace=wrap;html=1;rounded=0;" vertex="1" parent="1">
          <mxGeometry x="280" y="270" width="120" height="60" as="geometry" />
        </mxCell>
        <mxCell id="WZnHxXMNDp8m7tRpT0hQ-21" value="" style="edgeStyle=orthogonalEdgeStyle;rounded=0;orthogonalLoop=1;jettySize=auto;html=1;" edge="1" parent="1" source="WZnHxXMNDp8m7tRpT0hQ-10" target="WZnHxXMNDp8m7tRpT0hQ-20">
          <mxGeometry relative="1" as="geometry" />
        </mxCell>
        <mxCell id="WZnHxXMNDp8m7tRpT0hQ-10" value="&amp;nbsp;pode fazer saque acima do saldo" style="ellipse;whiteSpace=wrap;html=1;rounded=0;" vertex="1" parent="1">
          <mxGeometry x="510" y="10" width="80" height="80" as="geometry" />
        </mxCell>
        <mxCell id="WZnHxXMNDp8m7tRpT0hQ-12" value="digito 5&lt;br&gt;cpf do usuario" style="ellipse;whiteSpace=wrap;html=1;rounded=0;" vertex="1" parent="1">
          <mxGeometry x="130" y="240" width="80" height="80" as="geometry" />
        </mxCell>
        <mxCell id="WZnHxXMNDp8m7tRpT0hQ-19" value="" style="edgeStyle=orthogonalEdgeStyle;rounded=0;orthogonalLoop=1;jettySize=auto;html=1;" edge="1" parent="1" source="WZnHxXMNDp8m7tRpT0hQ-16" target="WZnHxXMNDp8m7tRpT0hQ-18">
          <mxGeometry relative="1" as="geometry" />
        </mxCell>
        <mxCell id="WZnHxXMNDp8m7tRpT0hQ-16" value="Saldo" style="whiteSpace=wrap;html=1;rounded=0;" vertex="1" parent="1">
          <mxGeometry x="450" y="110" width="120" height="60" as="geometry" />
        </mxCell>
        <mxCell id="WZnHxXMNDp8m7tRpT0hQ-18" value="Se o saldo estiver negativo, no proximo deposito sera cobrado uma taxa de 3% sobre&amp;nbsp; o valor" style="ellipse;whiteSpace=wrap;html=1;rounded=0;" vertex="1" parent="1">
          <mxGeometry x="470" y="270" width="200" height="120" as="geometry" />
        </mxCell>
        <mxCell id="WZnHxXMNDp8m7tRpT0hQ-20" value="&lt;div style=&quot;border-color: var(--border-color); color: rgb(204, 204, 204); font-family: Consolas, &amp;quot;Courier New&amp;quot;, monospace; font-size: 14px;&quot;&gt;Por exemplo, se uma conta tem saldo de R$200 e&lt;/div&gt;&lt;div style=&quot;border-color: var(--border-color); color: rgb(204, 204, 204); font-family: Consolas, &amp;quot;Courier New&amp;quot;, monospace; font-size: 14px;&quot;&gt;limite de R$100, seu cliente pode sacar até R$300&lt;/div&gt;" style="ellipse;whiteSpace=wrap;html=1;rounded=0;" vertex="1" parent="1">
          <mxGeometry x="670" y="10" width="140" height="160" as="geometry" />
        </mxCell>
      </root>
    </mxGraphModel>
  </diagram>
</mxfile>
